<svg width="25" height="25" viewBox="0 0 25 25" fill="none" xmlns="http://www.w3.org/2000/svg">
<g clip-path="url(#clip0_33_33)">
<path d="M12.5 0C5.602 0 0 5.602 0 12.5C0 19.398 5.602 25 12.5 25C19.398 25 25 19.398 25 12.5C25 5.602 19.398 0 12.5 0ZM12.5 0.969C14.0147 0.967421 15.5149 1.2646 16.9146 1.84353C18.3143 2.42246 19.5861 3.27176 20.6572 4.34283C21.7282 5.4139 22.5775 6.68569 23.1565 8.08541C23.7354 9.48513 24.0326 10.9853 24.031 12.5C24.031 18.878 18.878 24.063 12.5 24.063C6.122 24.063 0.937 18.878 0.937 12.5C0.938 6.122 6.122 0.969 12.5 0.969ZM14.813 7.062L9.468 12.5L14.812 17.938L15.53 17.25L10.874 12.5L15.53 7.75L14.811 7.062H14.813Z" fill="black"/>
</g>
<defs>
<clipPath id="clip0_33_33">
<rect width="25" height="25" fill="white"/>
</clipPath>
</defs>
</svg>
