<svg width="82" height="82" viewBox="0 0 82 82" fill="none" xmlns="http://www.w3.org/2000/svg">
<g clip-path="url(#clip0_142_201)">
<path d="M82 0H0V82H82V0Z" fill="white"/>
<path d="M10.25 17.0833C10.25 13.3094 13.3094 10.25 17.0833 10.25H64.9167C68.6907 10.25 71.75 13.3094 71.75 17.0833V68.3333C71.75 72.1074 68.6907 75.1667 64.9167 75.1667H17.0833C13.3094 75.1667 10.25 72.1074 10.25 68.3333V17.0833Z" stroke="black" stroke-width="4" stroke-linejoin="round"/>
<path d="M23.9167 37.5833C23.9167 35.6963 25.4464 34.1667 27.3333 34.1667H54.6667C56.5537 34.1667 58.0833 35.6963 58.0833 37.5833V64.9167C58.0833 66.8037 56.5537 68.3333 54.6667 68.3333H27.3333C25.4464 68.3333 23.9167 66.8037 23.9167 64.9167V37.5833Z" stroke="black" stroke-width="3" stroke-linejoin="round"/>
<path d="M10.25 27.3333H71.75" stroke="black" stroke-width="3" stroke-linejoin="round"/>
<path d="M63.2083 20.5H61.5" stroke="black" stroke-width="3" stroke-linecap="round" stroke-linejoin="round"/>
<path d="M56.375 20.5H54.6667" stroke="black" stroke-width="3" stroke-linecap="round" stroke-linejoin="round"/>
<path d="M52.9583 47.8333V52.9583" stroke="black" stroke-width="3" stroke-linecap="round" stroke-linejoin="round"/>
<path d="M29.0417 20.5H20.5" stroke="black" stroke-width="3" stroke-linecap="round" stroke-linejoin="round"/>
</g>
<defs>
<clipPath id="clip0_142_201">
<rect width="82" height="82" fill="white"/>
</clipPath>
</defs>
</svg>
